<svg xmlns="http://www.w3.org/2000/svg" xmlns:xlink="http://www.w3.org/1999/xlink" width="282" height="76" viewBox="0 0 282 76"><defs><linearGradient id="a" x1="1.003" y1="0.5" x2="-0.003" y2="0.5" gradientUnits="objectBoundingBox"><stop offset="0.801" stop-color="#f7f6fa"/><stop offset="1" stop-color="#e9e5f4"/></linearGradient></defs><path d="M106.5.5H268A13.5,13.5,0,0,1,281.5,14V62A13.5,13.5,0,0,1,268,75.5H106.5Z" stroke="#ffc74d" stroke-width="1" fill="url(#a)"/><path d="M0,14A14,14,0,0,1,14,0h92V76H14A14,14,0,0,1,0,62Z" fill="#ffc74d"/><circle cx="4.5" cy="4.5" r="4.5" transform="translate(93 48)" fill="#c3942d"/><circle cx="4.5" cy="4.5" r="4.5" transform="translate(112 48)" fill="#c3942d"/><rect width="20" height="2" transform="translate(97 52)" fill="#fff"/><circle cx="4.5" cy="4.5" r="4.5" transform="translate(93 20)" fill="#c3942d"/><circle cx="4.5" cy="4.5" r="4.5" transform="translate(112 20)" fill="#c3942d"/><rect width="20" height="2" transform="translate(97 24)" fill="#fff"/></svg>